<svg width="12" height="12" viewBox="0 0 12 12" fill="none" xmlns="http://www.w3.org/2000/svg">
<path fill-rule="evenodd" clip-rule="evenodd" d="M6.375 1.33301C6.375 1.1259 6.20711 0.958008 6 0.958008C5.79289 0.958008 5.625 1.1259 5.625 1.33301V5.62469H1.33325C1.12615 5.62469 0.958252 5.79259 0.958252 5.99969C0.958252 6.2068 1.12615 6.37469 1.33325 6.37469H5.625V10.6663C5.625 10.8734 5.79289 11.0413 6 11.0413C6.20711 11.0413 6.375 10.8734 6.375 10.6663V6.37469H10.6666C10.8737 6.37469 11.0416 6.2068 11.0416 5.99969C11.0416 5.79259 10.8737 5.62469 10.6666 5.62469H6.375V1.33301Z" fill="#121212"/>
</svg>
